<svg xmlns="http://www.w3.org/2000/svg" viewBox="0 0 64 64" id="cloudy-weather"><g data-name="Layer 2"><path fill="#ffb300" d="M44.5 17a1 1 0 0 1-1-1V12a1 1 0 0 1 2 0v4A1 1 0 0 1 44.5 17zM56.17 41.16a1 1 0 0 1-.71-.29l-2.82-2.81a1 1 0 0 1 1.41-1.42l2.82 2.81a1 1 0 0 1-.71 1.71zM35.65 20.66a1 1 0 0 1-.71-.29l-2.82-2.81a1 1 0 1 1 1.41-1.42l2.82 2.81a1 1 0 0 1-.71 1.71zM61 29.5H57a1 1 0 0 1 0-2h4a1 1 0 0 1 0 2zM53.35 20.66a1 1 0 0 1-.71-1.71l2.82-2.81a1 1 0 0 1 1.41 1.42l-2.82 2.81A1 1 0 0 1 53.35 20.66z"></path><path fill="#ffb300" d="M44.5,17.84a10.68,10.68,0,0,0-10.3,7.9,1,1,0,0,0,.36,1.05A13.54,13.54,0,0,1,39.78,36a1,1,0,0,0,1.1.89,7.15,7.15,0,0,1,5.39,1.67,1,1,0,0,0,.9.21,10.66,10.66,0,0,0-2.68-21Z"></path><path fill="#4fc3f7" d="M41.67,34.89h0a15.5,15.5,0,0,0-30.55,0h0a9,9,0,0,0-1.2,18,1,1,0,0,0,.39.08H42.47a.94.94,0,0,0,.37-.08,9,9,0,0,0-1.18-18Z"></path><path d="M42.47,53H10.25a1,1,0,0,1-.39-.08,9,9,0,0,1,1.2-18h0a15.5,15.5,0,0,1,30.55,0h0a9,9,0,0,1,1.18,18A.94.94,0,0,1,42.47,53ZM10.53,51H42.2l.18,0a7,7,0,0,0-.71-14.06,7.12,7.12,0,0,0-.78,0,1,1,0,0,1-.74-.21,1,1,0,0,1-.37-.67,13.5,13.5,0,0,0-26.84,0,1,1,0,0,1-.37.67,1,1,0,0,1-.74.21,7,7,0,0,0-7.84,7,7,7,0,0,0,6.35,7Z"></path><path d="M46.93,38.85a1,1,0,0,1-.65-.24,7.15,7.15,0,0,0-5.39-1.67,1,1,0,0,1-1.1-.89,13.54,13.54,0,0,0-5.22-9.26,1,1,0,0,1-.36-1.05,10.67,10.67,0,1,1,13,13.08A1,1,0,0,1,46.93,38.85Zm-5.26-4a9,9,0,0,1,5.49,1.86A8.66,8.66,0,1,0,36.32,25.64a15.57,15.57,0,0,1,5.31,9.25Z"></path></g></svg>